<?xml version="1.0" encoding="utf-8"?>
<!-- Generator: Adobe Illustrator 27.0.0, SVG Export Plug-In . SVG Version: 6.00 Build 0)  -->
<svg version="1.1" id="Calque_1" xmlns="http://www.w3.org/2000/svg" xmlns:xlink="http://www.w3.org/1999/xlink" x="0px" y="0px"
	 viewBox="0 0 236 236" style="enable-background:new 0 0 236 236;" xml:space="preserve">
<style type="text/css">
	.st0{fill:none;stroke:#000000;stroke-width:13;stroke-linecap:round;stroke-linejoin:round;stroke-miterlimit:10;}
	.st1{fill:none;stroke:#000000;stroke-width:17;stroke-linecap:round;stroke-linejoin:round;stroke-miterlimit:10;}
	.st2{fill:none;stroke:#000000;stroke-width:10;stroke-linecap:round;stroke-linejoin:round;stroke-miterlimit:10;}
	.st3{fill:#CC3333;stroke:#000000;stroke-width:10;stroke-linecap:round;stroke-linejoin:round;stroke-miterlimit:10;}
</style>
<g>
	<circle cx="91" cy="70.2" r="15.9"/>
	<rect x="118.2" y="65.3" transform="matrix(0.5317 -0.8469 0.8469 0.5317 -20.2383 164.3006)" width="40.5" height="70.3"/>
	<polyline class="st0" points="124.7,68.1 149.4,61.1 159.6,41.3 	"/>
	<polyline class="st0" points="103.4,102.3 114.5,125.4 132.6,134.9 	"/>
	<polyline class="st1" points="165.8,113.9 180.8,77.5 204.6,48.9 	"/>
	<polyline class="st1" points="162,129.1 196.7,98.5 227.3,93.4 	"/>
	<path class="st2" d="M87,152.3c0,34.5,30.6,62.4,68.2,62.4s68.2-27.9,68.2-62.4H87z"/>
	<path class="st3" d="M49.1,21.3C16,30.8-2.4,67.9,8.1,104.2C18.5,140.4,53.8,162,87,152.4L49.1,21.3z"/>
</g>
</svg>
